<svg width="21" height="20" viewBox="0 0 21 20" fill="none" xmlns="http://www.w3.org/2000/svg">
<path fill-rule="evenodd" clip-rule="evenodd" d="M19.9661 0.403664C19.9191 0.315664 19.8481 0.243664 19.7601 0.196664C17.6741 -0.913336 5.19507 2.95466 1.96706 4.81666C1.12606 5.30166 0.751063 5.87166 0.854063 6.50766C1.15106 8.34966 6.11406 9.74566 8.80707 10.3707L13.8641 5.31466C14.1571 5.02166 14.6321 5.02166 14.9251 5.31466C15.2181 5.60766 15.2181 6.08266 14.9251 6.37566L9.81907 11.4797C10.4601 14.2007 11.8411 19.0157 13.6541 19.3077C13.7221 19.3187 13.7901 19.3247 13.8571 19.3247C14.4111 19.3247 14.9111 18.9447 15.3441 18.1947C17.2061 14.9697 21.0771 2.49266 19.9661 0.403664Z" fill="white"/>
</svg>
