<svg width="1671" height="93" viewBox="0 0 1671 93" fill="none" xmlns="http://www.w3.org/2000/svg">
<path d="M31.6052 41.153H61.189L57.7312 58.2501H28.2434L31.6052 41.153ZM25.4579 79.7656H2.78976L16.237 12.5297H70.8902L67.4323 29.6268H35.4472L25.4579 79.7656ZM74.2092 79.7656L87.6564 12.5297H110.325L96.8773 79.7656H74.2092ZM117.395 79.7656L130.842 12.5297H149.476L174.737 53.4475H166.861L175.026 12.5297H197.117L183.67 79.7656H165.036L139.775 38.8477H147.651L139.487 79.7656H117.395ZM204.198 79.7656L217.645 12.5297H247.997C255.105 12.5297 261.22 13.6823 266.343 15.9875C271.465 18.2927 275.404 21.5905 278.157 25.8808C280.911 30.1071 282.287 35.1658 282.287 41.0569C282.287 47.0121 281.231 52.359 279.118 57.0975C277.068 61.836 274.155 65.9022 270.377 69.296C266.663 72.6898 262.245 75.2832 257.122 77.0762C251.999 78.8691 246.364 79.7656 240.217 79.7656H204.198ZM230.42 62.0922H240.985C245.019 62.0922 248.381 61.2277 251.071 59.4988C253.824 57.7058 255.905 55.3366 257.314 52.391C258.723 49.3814 259.427 46.0516 259.427 42.4016C259.427 39.7762 258.883 37.567 257.794 35.7741C256.77 33.9811 255.201 32.6044 253.088 31.6439C251.039 30.6834 248.477 30.2031 245.404 30.2031H236.759L230.42 62.0922ZM322.357 37.503H352.325L349.059 53.8318H319.091L322.357 37.503ZM318.803 62.6685H352.517L349.059 79.7656H293.158L306.605 12.5297H361.258L357.8 29.6268H325.431L318.803 62.6685ZM405.793 79.7656L419.24 12.5297H449.592C456.7 12.5297 462.815 13.6823 467.938 15.9875C473.061 18.2927 476.999 21.5905 479.752 25.8808C482.506 30.1071 483.883 35.1658 483.883 41.0569C483.883 47.0121 482.826 52.359 480.713 57.0975C478.664 61.836 475.75 65.9022 471.972 69.296C468.258 72.6898 463.84 75.2832 458.717 77.0762C453.594 78.8691 447.959 79.7656 441.812 79.7656H405.793ZM432.015 62.0922H442.581C446.615 62.0922 449.976 61.2277 452.666 59.4988C455.419 57.7058 457.501 55.3366 458.909 52.391C460.318 49.3814 461.022 46.0516 461.022 42.4016C461.022 39.7762 460.478 37.567 459.39 35.7741C458.365 33.9811 456.796 32.6044 454.683 31.6439C452.634 30.6834 450.073 30.2031 446.999 30.2031H438.354L432.015 62.0922ZM523.953 37.503H553.921L550.655 53.8318H520.687L523.953 37.503ZM520.399 62.6685H554.113L550.655 79.7656H494.753L508.2 12.5297H562.853L559.396 29.6268H527.026L520.399 62.6685ZM568.986 79.7656L582.434 12.5297H605.102L591.655 79.7656H568.986ZM612.172 79.7656L625.619 12.5297H644.253L669.515 53.4475H661.638L669.803 12.5297H691.895L678.447 79.7656H659.814L634.552 38.8477H642.428L634.264 79.7656H612.172ZM728.174 37.503H758.142L754.877 53.8318H724.909L728.174 37.503ZM724.62 62.6685H758.334L754.877 79.7656H698.975L712.422 12.5297H767.075L763.617 29.6268H731.248L724.62 62.6685ZM773.208 79.7656L786.655 12.5297H805.289L830.551 53.4475H822.675L830.839 12.5297H852.931L839.484 79.7656H820.85L795.588 38.8477H803.464L795.3 79.7656H773.208ZM913.012 79.7656L922.906 30.1071H903.215L906.769 12.5297H968.818L965.264 30.1071H945.574L935.681 79.7656H913.012ZM970.864 79.7656L984.311 12.5297H1014.47C1023.37 12.5297 1030.26 14.4827 1035.12 18.3888C1039.99 22.2308 1042.42 27.6417 1042.42 34.6215C1042.42 40.2565 1041.01 45.1871 1038.2 49.4134C1035.44 53.6396 1031.5 56.9374 1026.38 59.3067C1021.32 61.6759 1015.34 62.8606 1008.42 62.8606H986.712L998.815 53.3515L993.532 79.7656H970.864ZM1011.97 79.7656L998.143 55.2725H1021.48L1035.51 79.7656H1011.97ZM998.239 56.0409L990.266 45.7634H1009.57C1012.71 45.7634 1015.14 44.995 1016.87 43.4582C1018.6 41.8573 1019.47 39.6482 1019.47 36.8307C1019.47 34.3974 1018.7 32.6684 1017.16 31.6439C1015.69 30.5553 1013.64 30.011 1011.01 30.011H993.436L1005.54 19.4454L998.239 56.0409ZM1044.74 79.7656L1087.58 12.5297H1109.86L1125.81 79.7656H1103.23L1092.38 22.9993H1101.22L1068.66 79.7656H1044.74ZM1064.53 68.0474L1073.55 51.7186H1104.48L1106.98 68.0474H1064.53ZM1171.53 81.3024C1164.55 81.3024 1158.72 79.9897 1154.05 77.3643C1149.37 74.6749 1146.04 70.9609 1144.06 66.2224C1142.14 61.4198 1141.82 55.8488 1143.1 49.5094L1150.49 12.5297H1173.16L1165.86 49.1252C1165.41 51.4945 1165.25 53.5436 1165.38 55.2725C1165.51 57.0014 1165.93 58.4422 1166.63 59.5948C1167.4 60.7475 1168.42 61.6119 1169.7 62.1882C1170.98 62.7005 1172.52 62.9566 1174.31 62.9566C1176.49 62.9566 1178.35 62.5084 1179.88 61.6119C1181.49 60.7154 1182.8 59.2426 1183.82 57.1935C1184.91 55.1445 1185.78 52.455 1186.42 49.1252L1193.72 12.5297H1216L1208.41 50.47C1206.43 60.5233 1202.36 68.1754 1196.21 73.4262C1190.07 78.677 1181.84 81.3024 1171.53 81.3024ZM1222.55 79.7656L1236 12.5297H1254.44L1272.4 56.4251H1262.6L1297.18 12.5297H1316.49L1303.23 79.7656H1282.58L1289.59 43.6503L1292.86 43.4582L1269.61 73.7144H1259.62L1246.56 43.3621L1250.4 43.6503L1243.2 79.7656H1222.55ZM1342.43 81.3024C1336.8 81.3024 1331.93 80.438 1327.83 78.7091C1323.8 76.9801 1320.53 74.3867 1318.03 70.9289L1332.54 57.1935C1334.01 59.3067 1335.58 60.9075 1337.24 61.9961C1338.97 63.0207 1340.83 63.5329 1342.81 63.5329C1344.99 63.5329 1346.75 62.8926 1348.1 61.6119C1349.51 60.3312 1350.43 58.5063 1350.88 56.137L1356.17 29.6268H1333.31L1336.76 12.5297H1382L1373.55 54.7923C1372.27 61.2597 1370.29 66.4465 1367.6 70.3526C1364.91 74.1946 1361.45 76.9801 1357.22 78.7091C1353.06 80.438 1348.13 81.3024 1342.43 81.3024ZM1426.4 81.3024C1419.42 81.3024 1413.37 80.0218 1408.25 77.4604C1403.19 74.899 1399.25 71.3771 1396.43 66.8947C1393.68 62.3483 1392.3 57.1295 1392.3 51.2384C1392.3 45.2832 1393.33 39.8723 1395.38 35.0057C1397.49 30.075 1400.43 25.8168 1404.21 22.2308C1407.99 18.6449 1412.47 15.8915 1417.66 13.9704C1422.85 11.9854 1428.51 10.9928 1434.66 10.9928C1441.64 10.9928 1447.66 12.2735 1452.72 14.8349C1457.84 17.3963 1461.78 20.9502 1464.53 25.4966C1467.35 29.979 1468.76 35.1658 1468.76 41.0569C1468.76 47.0121 1467.7 52.455 1465.59 57.3857C1463.54 62.2523 1460.63 66.4785 1456.85 70.0644C1453.07 73.6504 1448.59 76.4358 1443.4 78.4209C1438.21 80.3419 1432.55 81.3024 1426.4 81.3024ZM1428.32 62.9566C1431.14 62.9566 1433.6 62.4123 1435.72 61.3238C1437.89 60.2352 1439.75 58.7304 1441.29 56.8093C1442.83 54.8883 1443.98 52.7111 1444.75 50.2778C1445.51 47.7805 1445.9 45.1551 1445.9 42.4016C1445.9 39.7762 1445.35 37.503 1444.27 35.582C1443.24 33.5969 1441.74 32.0601 1439.75 30.9715C1437.83 29.8829 1435.49 29.3386 1432.74 29.3386C1429.99 29.3386 1427.52 29.8829 1425.34 30.9715C1423.17 32.0601 1421.31 33.5649 1419.77 35.4859C1418.24 37.407 1417.08 39.6161 1416.31 42.1135C1415.55 44.5468 1415.16 47.1402 1415.16 49.8936C1415.16 52.455 1415.67 54.7282 1416.7 56.7133C1417.79 58.6984 1419.29 60.2352 1421.21 61.3238C1423.2 62.4123 1425.57 62.9566 1428.32 62.9566ZM1479.58 79.7656L1493.03 12.5297H1528.66C1536.67 12.5297 1542.69 13.9384 1546.72 16.7559C1550.75 19.5094 1552.77 23.4475 1552.77 28.5702C1552.77 32.7325 1551.55 36.2543 1549.12 39.1359C1546.75 42.0174 1543.45 44.2266 1539.23 45.7634C1535.07 47.2362 1530.26 47.9726 1524.82 47.9726L1527.7 42.7858C1534.55 42.7858 1539.93 44.1626 1543.84 46.9161C1547.81 49.6055 1549.79 53.4155 1549.79 58.3462C1549.79 63.2768 1548.35 67.343 1545.47 70.5447C1542.65 73.6824 1538.88 76.0196 1534.14 77.5564C1529.4 79.0292 1524.15 79.7656 1518.38 79.7656H1479.58ZM1505.03 63.9171H1519.63C1521.87 63.9171 1523.7 63.4049 1525.11 62.3803C1526.58 61.3558 1527.32 59.819 1527.32 57.7699C1527.32 56.2971 1526.74 55.2085 1525.59 54.5041C1524.5 53.7357 1523.22 53.3515 1521.75 53.3515H1505.61L1508.59 38.3675H1521.65C1523.38 38.3675 1524.79 38.1434 1525.88 37.6951C1527.03 37.1828 1527.86 36.5105 1528.37 35.678C1528.89 34.7816 1529.14 33.725 1529.14 32.5083C1529.14 31.0996 1528.6 30.075 1527.51 29.4347C1526.48 28.7303 1525.04 28.3781 1523.19 28.3781H1512.14L1505.03 63.9171ZM1569.62 54.0239L1573.56 12.5297H1599.49L1586.91 54.0239H1569.62ZM1574.52 80.7261C1571 80.7261 1568.12 79.7016 1565.88 77.6525C1563.63 75.6034 1562.51 73.1061 1562.51 70.1605C1562.51 66.5746 1563.79 63.629 1566.36 61.3238C1568.92 59.0185 1572.09 57.8659 1575.87 57.8659C1579.45 57.8659 1582.33 58.8584 1584.51 60.8435C1586.75 62.8286 1587.87 65.2939 1587.87 68.2395C1587.87 70.5447 1587.26 72.6578 1586.05 74.5789C1584.89 76.4358 1583.33 77.9406 1581.34 79.0933C1579.36 80.1818 1577.08 80.7261 1574.52 80.7261Z" fill="white"/>
</svg>
