<svg width="1493" height="93" viewBox="0 0 1493 93" fill="none" xmlns="http://www.w3.org/2000/svg">
<path d="M29.2039 41.153H58.7877V58.2501H29.2039V41.153ZM30.7407 79.7656H8.07259V12.5297H62.7258V29.6268H30.7407V79.7656ZM71.8079 79.7656V12.5297H94.4761V79.7656H71.8079ZM107.309 79.7656V12.5297H125.943L160.138 53.4475H151.493V12.5297H173.585V79.7656H154.951L120.757 38.8477H129.401V79.7656H107.309ZM186.428 79.7656V12.5297H219.566C227.058 12.5297 233.653 13.9064 239.352 16.6599C245.051 19.3493 249.502 23.1914 252.703 28.186C255.905 33.1807 257.506 39.1359 257.506 46.0516C257.506 53.0313 255.905 59.0505 252.703 64.1092C249.502 69.1039 245.051 72.978 239.352 75.7315C233.653 78.4209 227.058 79.7656 219.566 79.7656H186.428ZM209.096 62.0922H218.605C221.807 62.0922 224.592 61.4838 226.962 60.2672C229.395 59.0505 231.284 57.2576 232.629 54.8883C233.973 52.455 234.646 49.5094 234.646 46.0516C234.646 42.6578 233.973 39.7762 232.629 37.407C231.284 35.0377 229.395 33.2447 226.962 32.0281C224.592 30.8114 221.807 30.2031 218.605 30.2031H209.096V62.0922ZM288.451 37.503H318.419V53.8318H288.451V37.503ZM289.988 62.6685H323.606V79.7656H267.704V12.5297H322.357V29.6268H289.988V62.6685ZM364.971 79.7656V12.5297H398.109C405.601 12.5297 412.196 13.9064 417.895 16.6599C423.594 19.3493 428.045 23.1914 431.246 28.186C434.448 33.1807 436.049 39.1359 436.049 46.0516C436.049 53.0313 434.448 59.0505 431.246 64.1092C428.045 69.1039 423.594 72.978 417.895 75.7315C412.196 78.4209 405.601 79.7656 398.109 79.7656H364.971ZM387.639 62.0922H397.148C400.35 62.0922 403.135 61.4838 405.505 60.2672C407.938 59.0505 409.827 57.2576 411.172 54.8883C412.516 52.455 413.189 49.5094 413.189 46.0516C413.189 42.6578 412.516 39.7762 411.172 37.407C409.827 35.0377 407.938 33.2447 405.505 32.0281C403.135 30.8114 400.35 30.2031 397.148 30.2031H387.639V62.0922ZM466.994 37.503H496.962V53.8318H466.994V37.503ZM468.531 62.6685H502.149V79.7656H446.247V12.5297H500.9V29.6268H468.531V62.6685ZM512.796 79.7656V12.5297H535.464V79.7656H512.796ZM548.298 79.7656V12.5297H566.932L601.126 53.4475H592.482V12.5297H614.573V79.7656H595.939L561.745 38.8477H570.39V79.7656H548.298ZM648.163 37.503H678.132V53.8318H648.163V37.503ZM649.7 62.6685H683.318V79.7656H627.416V12.5297H682.07V29.6268H649.7V62.6685ZM693.966 79.7656V12.5297H712.6L746.794 53.4475H738.149V12.5297H760.241V79.7656H741.607L707.413 38.8477H716.058V79.7656H693.966ZM818.402 79.7656V30.1071H798.711V12.5297H860.76V30.1071H841.07V79.7656H818.402ZM868.569 79.7656V12.5297H900.938C907.214 12.5297 912.625 13.5542 917.171 15.6033C921.782 17.6524 925.336 20.598 927.833 24.44C930.33 28.218 931.579 32.7004 931.579 37.8872C931.579 43.074 930.33 47.5564 927.833 51.3344C925.336 55.0484 921.782 57.8979 917.171 59.883C912.625 61.868 907.214 62.8606 900.938 62.8606H881.152L891.237 53.5436V79.7656H868.569ZM908.815 79.7656L892.294 55.2725H916.307L933.02 79.7656H908.815ZM891.237 56.0409L881.152 45.7634H899.498C902.635 45.7634 904.941 45.0591 906.413 43.6503C907.95 42.2415 908.719 40.3205 908.719 37.8872C908.719 35.4539 907.95 33.5329 906.413 32.1241C904.941 30.7154 902.635 30.011 899.498 30.011H881.152L891.237 19.7335V56.0409ZM934.76 79.7656L964.152 12.5297H986.435L1015.83 79.7656H992.391L970.683 23.2874H979.52L957.812 79.7656H934.76ZM952.241 68.0474L958.004 51.7186H988.933L994.696 68.0474H952.241ZM1052.14 81.3024C1041.83 81.3024 1033.79 78.517 1028.03 72.946C1022.26 67.375 1019.38 59.5628 1019.38 49.5094V12.5297H1042.05V48.8371C1042.05 53.9598 1042.98 57.6098 1044.84 59.7869C1046.69 61.9001 1049.19 62.9566 1052.33 62.9566C1055.53 62.9566 1058.03 61.9001 1059.82 59.7869C1061.68 57.6098 1062.61 53.9598 1062.61 48.8371V12.5297H1084.89V49.5094C1084.89 59.5628 1082.01 67.375 1076.24 72.946C1070.48 78.517 1062.45 81.3024 1052.14 81.3024ZM1097.2 79.7656V12.5297H1115.84L1142.73 56.4251H1132.93L1159.06 12.5297H1177.69L1177.88 79.7656H1157.23L1157.04 43.6503H1160.31L1142.44 73.7144H1132.45L1113.82 43.6503H1117.85V79.7656H1097.2ZM1207.77 81.3024C1202.52 81.3024 1197.78 80.47 1193.55 78.8051C1189.32 77.0762 1185.8 74.5789 1182.99 71.3131L1195.18 56.9054C1196.98 59.0826 1198.74 60.7475 1200.47 61.9001C1202.2 62.9886 1203.99 63.5329 1205.85 63.5329C1210.71 63.5329 1213.15 60.7474 1213.15 55.1765V29.6268H1190.29V12.5297H1235.53V53.8318C1235.53 63.0527 1233.16 69.9364 1228.42 74.4828C1223.68 79.0292 1216.8 81.3024 1207.77 81.3024ZM1283.19 81.3024C1277.68 81.3024 1272.59 80.438 1267.92 78.7091C1263.31 76.9801 1259.3 74.5468 1255.91 71.4092C1252.52 68.2074 1249.86 64.4614 1247.94 60.1711C1246.08 55.8808 1245.15 51.2063 1245.15 46.1476C1245.15 41.0249 1246.08 36.3504 1247.94 32.1241C1249.86 27.8338 1252.52 24.1199 1255.91 20.9822C1259.3 17.7805 1263.31 15.3151 1267.92 13.5862C1272.59 11.8573 1277.65 10.9928 1283.09 10.9928C1288.6 10.9928 1293.66 11.8573 1298.27 13.5862C1302.88 15.3151 1306.88 17.7805 1310.27 20.9822C1313.67 24.1199 1316.29 27.8338 1318.15 32.1241C1320.07 36.3504 1321.03 41.0249 1321.03 46.1476C1321.03 51.2063 1320.07 55.8808 1318.15 60.1711C1316.29 64.4614 1313.67 68.2074 1310.27 71.4092C1306.88 74.5468 1302.88 76.9801 1298.27 78.7091C1293.66 80.438 1288.63 81.3024 1283.19 81.3024ZM1283.09 62.9566C1285.2 62.9566 1287.16 62.5724 1288.95 61.804C1290.81 61.0356 1292.41 59.947 1293.75 58.5383C1295.16 57.0655 1296.25 55.3045 1297.02 53.2554C1297.79 51.1423 1298.17 48.773 1298.17 46.1476C1298.17 43.5222 1297.79 41.185 1297.02 39.1359C1296.25 37.0228 1295.16 35.2618 1293.75 33.8531C1292.41 32.3803 1290.81 31.2597 1288.95 30.4913C1287.16 29.7229 1285.2 29.3386 1283.09 29.3386C1280.98 29.3386 1278.99 29.7229 1277.14 30.4913C1275.34 31.2597 1273.74 32.3803 1272.33 33.8531C1270.99 35.2618 1269.93 37.0228 1269.16 39.1359C1268.4 41.185 1268.01 43.5222 1268.01 46.1476C1268.01 48.773 1268.4 51.1423 1269.16 53.2554C1269.93 55.3045 1270.99 57.0655 1272.33 58.5383C1273.74 59.947 1275.34 61.0356 1277.14 61.804C1278.99 62.5724 1280.98 62.9566 1283.09 62.9566ZM1331.18 79.7656V12.5297H1367.1C1376.39 12.5297 1383.24 14.1945 1387.66 17.5243C1392.08 20.7901 1394.29 24.9843 1394.29 30.1071C1394.29 33.5009 1393.33 36.5425 1391.4 39.2319C1389.55 41.8573 1386.83 43.9385 1383.24 45.4753C1379.65 47.0121 1375.24 47.7805 1369.99 47.7805L1371.91 42.5937C1377.16 42.5937 1381.67 43.3301 1385.45 44.8029C1389.29 46.2757 1392.24 48.4209 1394.29 51.2384C1396.4 53.9918 1397.46 57.3216 1397.46 61.2277C1397.46 67.0548 1395.02 71.6013 1390.16 74.867C1385.35 78.1328 1378.31 79.7656 1369.02 79.7656H1331.18ZM1353.46 63.9171H1367.1C1369.6 63.9171 1371.46 63.4689 1372.67 62.5724C1373.96 61.6759 1374.6 60.3632 1374.6 58.6343C1374.6 56.9054 1373.96 55.5927 1372.67 54.6962C1371.46 53.7997 1369.6 53.3515 1367.1 53.3515H1351.93V38.3675H1364.03C1366.59 38.3675 1368.45 37.9513 1369.6 37.1188C1370.82 36.2223 1371.43 34.9737 1371.43 33.3728C1371.43 31.7079 1370.82 30.4592 1369.6 29.6268C1368.45 28.7944 1366.59 28.3781 1364.03 28.3781H1353.46V63.9171ZM1408.35 54.0239L1404.03 12.5297H1429.96L1425.64 54.0239H1408.35ZM1417 80.7261C1413.28 80.7261 1410.24 79.6055 1407.87 77.3643C1405.5 75.0591 1404.32 72.3377 1404.32 69.2C1404.32 65.9983 1405.5 63.3088 1407.87 61.1317C1410.24 58.9545 1413.28 57.8659 1417 57.8659C1420.77 57.8659 1423.82 58.9545 1426.12 61.1317C1428.49 63.3088 1429.68 65.9983 1429.68 69.2C1429.68 72.3377 1428.49 75.0591 1426.12 77.3643C1423.82 79.6055 1420.77 80.7261 1417 80.7261Z" fill="white"/>
</svg>
